<svg xmlns="http://www.w3.org/2000/svg" xmlns:xlink="http://www.w3.org/1999/xlink" version="1.2" viewBox="37.58 264.13 539.52 218.93">
<defs>
<clipPath id="clip1">
  <path d="M 317 264 L 350 264 L 350 408 L 317 408 Z M 317 264 "/>
</clipPath>
<clipPath id="clip2">
  <path d="M 318.46875 264.929688 C 323.054688 292.925781 343.148438 313.363281 346.078125 343.96875 C 348.628906 370.722656 337.242188 389.996094 326.585938 407.847656 C 331.070312 407.3125 332.148438 401.6875 334.171875 398.101562 C 341.429688 385.25 350.945312 366.589844 348.78125 346.132812 C 345.539062 315.472656 325.660156 290.742188 319.003906 264.929688 C 318.765625 264.394531 318.3125 264.125 318.074219 264.125 C 317.84375 264.125 317.828125 264.394531 318.46875 264.929688 "/>
</clipPath>
<clipPath id="clip3">
  <path d="M 283 269 L 338 269 L 338 406 L 283 406 Z M 283 269 "/>
</clipPath>
<clipPath id="clip4">
  <path d="M 313.59375 327.1875 C 308.726562 324.472656 301.5 321.246094 294.648438 322.3125 C 302.332031 323.46875 308.730469 325.914062 313.59375 329.894531 C 311.054688 336.011719 310.863281 344.492188 307.640625 349.925781 C 301.6875 346.308594 291.984375 343.570312 283.816406 343.96875 C 292.824219 345.792969 301.148438 348.296875 307.640625 352.628906 C 305.996094 359.929688 307.460938 367.683594 307.640625 373.742188 C 301.941406 371.027344 292.007812 367.167969 285.445312 368.871094 C 295.265625 370.0625 302.664062 373.671875 309.8125 377.53125 C 313.070312 388.894531 319.226562 397.347656 326.050781 405.140625 C 321.6875 395.238281 314.476562 388.203125 313.058594 375.367188 C 321.085938 370.410156 329.878906 366.199219 337.960938 361.289062 C 327.703125 363.851562 319.976562 368.9375 311.972656 373.742188 C 310.613281 368.429688 309.996094 362.371094 310.347656 355.335938 C 315.085938 348.691406 327.820312 344.320312 332 340.722656 C 324.753906 342.851562 317.070312 347.441406 311.433594 349.382812 C 312.609375 342.257812 315.195312 336.546875 316.304688 329.351562 C 320.128906 325.953125 327.730469 323.464844 329.839844 320.152344 C 326.027344 321.933594 320.378906 324.761719 317.386719 325.5625 C 322.890625 309.542969 323.625 285.316406 317.386719 269.261719 C 320.015625 288.484375 319.28125 311.691406 313.59375 327.1875 "/>
</clipPath>
<clipPath id="clip5">
  <path d="M 265 276 L 325 276 L 325 407 L 265 407 Z M 265 276 "/>
</clipPath>
<clipPath id="clip6">
  <path d="M 265.960938 351.550781 C 267.625 366.089844 278.230469 377.988281 287.609375 386.203125 C 298.226562 395.480469 310.746094 401.230469 323.878906 406.761719 C 324.921875 404.980469 322.179688 405.390625 321.71875 405.140625 C 302.855469 394.925781 282.480469 380.40625 280.03125 354.800781 C 278.859375 342.542969 281.042969 331.472656 285.988281 323.941406 C 288.714844 319.789062 292.953125 317.195312 296.273438 313.652344 C 305.839844 303.449219 311.25 291.648438 313.59375 276.296875 C 302.800781 305.433594 261.210938 310.160156 265.960938 351.550781 "/>
</clipPath>
</defs>
<g id="surface1">
<g clip-path="url(#clip1)" clip-rule="nonzero">
<g clip-path="url(#clip2)" clip-rule="nonzero">
<path style=" stroke:none;fill-rule:nonzero;fill:rgb(15.071106%,32.171631%,24.69635%);fill-opacity:1;" d="M 317.828125 264.125 L 350.945312 264.125 L 350.945312 407.847656 L 317.828125 407.847656 Z M 317.828125 264.125 "/>
</g>
</g>
<g clip-path="url(#clip3)" clip-rule="nonzero">
<g clip-path="url(#clip4)" clip-rule="nonzero">
<path style=" stroke:none;fill-rule:nonzero;fill:rgb(15.071106%,32.171631%,24.69635%);fill-opacity:1;" d="M 283.816406 269.261719 L 337.960938 269.261719 L 337.960938 405.140625 L 283.816406 405.140625 Z M 283.816406 269.261719 "/>
</g>
</g>
<g clip-path="url(#clip5)" clip-rule="nonzero">
<g clip-path="url(#clip6)" clip-rule="nonzero">
<path style=" stroke:none;fill-rule:nonzero;fill:rgb(15.071106%,32.171631%,24.69635%);fill-opacity:1;" d="M 261.210938 276.296875 L 324.921875 276.296875 L 324.921875 406.761719 L 261.210938 406.761719 Z M 261.210938 276.296875 "/>
</g>
</g>
<path style=" stroke:none;fill-rule:nonzero;fill:rgb(15.071106%,32.171631%,24.69635%);fill-opacity:1;" d="M 133.636719 449.496094 C 142.035156 449.527344 147.414062 451.621094 149.789062 455.769531 C 150.367188 456.875 150.660156 457.839844 150.65625 458.65625 L 150.570312 481.480469 L 123.195312 481.382812 L 123.289062 457.0625 C 123.292969 455.492188 121.34375 454.257812 117.4375 453.371094 C 114.644531 452.71875 112.050781 452.386719 109.660156 452.378906 L 109.550781 481.332031 L 82.085938 481.226562 L 82.179688 456.910156 C 82.183594 455.339844 80.242188 454.105469 76.332031 453.21875 C 73.539062 452.566406 70.941406 452.234375 68.550781 452.230469 L 68.480469 473.566406 C 68.464844 476.425781 66.765625 478.519531 63.375 479.847656 C 61.042969 480.714844 58.15625 481.140625 54.71875 481.125 L 37.578125 481.0625 L 37.695312 449.144531 Z M 133.636719 449.496094 "/>
<path style=" stroke:none;fill-rule:nonzero;fill:rgb(15.071106%,32.171631%,24.69635%);fill-opacity:1;" d="M 208.914062 479.421875 C 208.914062 479.304688 208.941406 479.191406 209 479.074219 L 209.007812 478.195312 C 209.007812 477.558594 209.015625 476.1875 209.019531 474.089844 L 209.03125 470.671875 C 209.039062 469.101562 209.042969 466.476562 209.058594 462.804688 C 209.015625 459.304688 208.996094 456.683594 209.007812 454.929688 C 209.007812 454.292969 208.613281 453.761719 207.828125 453.355469 C 207.042969 452.941406 206.296875 452.734375 205.601562 452.734375 L 164.496094 452.582031 L 164.507812 449.609375 L 226.160156 449.835938 C 235.316406 449.875 239.886719 452.425781 239.867188 457.496094 L 239.78125 481.808594 L 174.707031 481.570312 C 169.050781 481.546875 165.761719 480.222656 164.847656 477.597656 C 164.550781 476.78125 164.414062 475.554688 164.417969 473.921875 L 164.449219 464.828125 L 200.042969 464.960938 C 202.789062 464.96875 204.152344 465.472656 204.152344 466.460938 C 204.148438 467.453125 202.769531 467.941406 200.035156 467.933594 L 191.8125 467.898438 L 191.78125 476.300781 C 191.773438 478.339844 192.933594 479.363281 195.269531 479.375 Z M 208.914062 479.421875 "/>
<path style=" stroke:none;fill-rule:nonzero;fill:rgb(15.071106%,32.171631%,24.69635%);fill-opacity:1;" d="M 305.75 450.132812 C 313.976562 450.164062 319.328125 452.191406 321.820312 456.222656 C 322.457031 457.335938 322.773438 458.355469 322.769531 459.292969 L 322.75 465.417969 L 295.375 465.308594 L 295.402344 457.699219 C 295.414062 456.128906 293.457031 454.894531 289.550781 454.007812 C 286.753906 453.355469 284.167969 453.023438 281.773438 453.015625 L 281.695312 474.355469 C 281.683594 477.210938 279.992188 479.308594 276.597656 480.636719 C 274.265625 481.5 271.378906 481.921875 267.941406 481.914062 L 250.792969 481.851562 L 250.914062 449.933594 Z M 305.75 450.132812 "/>
<path style=" stroke:none;fill-rule:nonzero;fill:rgb(15.071106%,32.171631%,24.69635%);fill-opacity:1;" d="M 363.71875 453.316406 L 363.71875 453.675781 L 363.628906 454.457031 C 363.625 455.15625 363.621094 456.5 363.621094 458.480469 L 363.605469 461.628906 C 363.601562 463.203125 363.621094 465.769531 363.664062 469.324219 C 363.648438 472.648438 363.640625 475.183594 363.632812 476.9375 C 363.625 478.976562 364.765625 480 367.035156 480.003906 L 408.144531 480.164062 L 408.132812 482.433594 L 346.472656 482.203125 C 341.75 482.183594 338.339844 481.679688 336.25 480.679688 C 333.980469 479.566406 332.84375 477.519531 332.859375 474.542969 L 332.949219 450.230469 L 393.5625 450.460938 C 400.140625 450.484375 404.691406 452.214844 407.183594 455.667969 C 407.878906 456.542969 408.222656 457.363281 408.21875 458.117188 L 408.191406 467.21875 L 373.90625 467.089844 C 370.988281 467.078125 369.53125 466.546875 369.535156 465.496094 C 369.542969 464.511719 371 464.015625 373.917969 464.027344 L 380.828125 464.054688 L 380.859375 454.957031 C 380.863281 453.90625 379.730469 453.378906 377.453125 453.371094 Z M 363.71875 453.316406 "/>
<path style=" stroke:none;fill-rule:nonzero;fill:rgb(15.071106%,32.171631%,24.69635%);fill-opacity:1;" d="M 431.828125 482.519531 L 418.214844 452.035156 L 445.585938 452.136719 L 452.570312 481.109375 L 459.292969 458.3125 C 460.175781 455.277344 461.941406 453.191406 464.566406 452.035156 C 466.554688 451.160156 469.382812 450.734375 473.0625 450.753906 L 489.496094 450.816406 L 476.957031 482.6875 Z M 431.828125 482.519531 "/>
<path style=" stroke:none;fill-rule:nonzero;fill:rgb(15.071106%,32.171631%,24.69635%);fill-opacity:1;" d="M 546.148438 480.667969 C 546.148438 480.554688 546.175781 480.4375 546.238281 480.324219 L 546.246094 479.445312 C 546.246094 478.808594 546.25 477.433594 546.253906 475.335938 L 546.261719 471.921875 C 546.265625 470.351562 546.28125 467.722656 546.296875 464.054688 C 546.25 460.554688 546.234375 457.933594 546.238281 456.179688 C 546.246094 455.539062 545.847656 455.011719 545.0625 454.605469 C 544.273438 454.191406 543.539062 453.980469 542.835938 453.980469 L 501.726562 453.832031 L 501.734375 450.859375 L 563.402344 451.085938 C 572.554688 451.121094 577.121094 453.675781 577.101562 458.746094 L 577.015625 483.058594 L 511.945312 482.816406 C 506.289062 482.792969 502.996094 481.472656 502.078125 478.84375 C 501.789062 478.027344 501.644531 476.804688 501.652344 475.171875 L 501.683594 466.074219 L 537.285156 466.207031 C 540.019531 466.214844 541.386719 466.71875 541.386719 467.707031 C 541.382812 468.699219 540.003906 469.191406 537.269531 469.183594 L 529.042969 469.148438 L 529.023438 477.550781 C 529.011719 479.585938 530.175781 480.613281 532.5 480.621094 Z M 546.148438 480.667969 "/>
<path style=" stroke:none;fill-rule:nonzero;fill:rgb(15.071106%,32.171631%,24.69635%);fill-opacity:1;" d="M 57.195312 437.050781 C 55.28125 437.050781 54.328125 436.113281 54.328125 434.238281 L 54.328125 427.957031 C 54.328125 426.335938 55.28125 425.53125 57.195312 425.53125 L 87.625 425.53125 L 87.625 428.371094 L 58.792969 428.371094 C 58.445312 428.625 58.207031 428.921875 58.078125 429.25 L 58.078125 433.332031 L 58.625 433.882812 L 87.652344 433.882812 L 87.652344 437.050781 Z M 57.195312 437.050781 "/>
<path style=" stroke:none;fill-rule:nonzero;fill:rgb(15.071106%,32.171631%,24.69635%);fill-opacity:1;" d="M 93.632812 437.050781 L 89.882812 437.050781 L 89.882812 425.503906 L 93.632812 425.503906 Z M 93.632812 437.050781 "/>
<path style=" stroke:none;fill-rule:nonzero;fill:rgb(15.071106%,32.171631%,24.69635%);fill-opacity:1;" d="M 98.753906 437.050781 C 96.84375 437.050781 95.890625 436.113281 95.890625 434.238281 L 95.890625 427.957031 C 95.890625 426.335938 96.84375 425.53125 98.753906 425.53125 L 129.1875 425.53125 L 129.1875 428.371094 L 100.355469 428.371094 C 100.003906 428.625 99.765625 428.921875 99.640625 429.25 L 99.640625 433.332031 L 100.1875 433.882812 L 125.441406 433.882812 L 125.441406 430.90625 L 129.214844 430.90625 L 129.214844 437.050781 Z M 98.753906 437.050781 "/>
<path style=" stroke:none;fill-rule:nonzero;fill:rgb(15.071106%,32.171631%,24.69635%);fill-opacity:1;" d="M 135.191406 432.558594 L 135.191406 437.050781 L 131.445312 437.050781 L 131.445312 427.957031 C 131.445312 426.316406 132.410156 425.5 134.339844 425.5 L 161.933594 425.5 C 163.804688 425.519531 164.742188 426.328125 164.742188 427.929688 L 164.742188 437.027344 L 160.992188 437.027344 L 160.992188 432.558594 Z M 160.496094 428.367188 L 135.90625 428.367188 C 135.5625 428.625 135.320312 428.921875 135.191406 429.25 L 135.191406 429.691406 L 160.992188 429.691406 C 160.992188 429.105469 160.828125 428.667969 160.496094 428.367188 "/>
<path style=" stroke:none;fill-rule:nonzero;fill:rgb(15.071106%,32.171631%,24.69635%);fill-opacity:1;" d="M 170.75 432.558594 L 170.75 437.050781 L 167 437.050781 L 167 425.5 L 197.542969 425.5 C 199.382812 425.519531 200.300781 426.328125 200.300781 427.929688 L 200.300781 430.296875 C 200.300781 431.804688 199.382812 432.558594 197.542969 432.558594 L 195.996094 432.558594 L 200.300781 437.027344 L 196.550781 437.027344 L 192.140625 432.558594 Z M 196.550781 429.027344 C 196.550781 428.882812 196.386719 428.664062 196.054688 428.367188 L 170.75 428.367188 L 170.75 429.691406 L 196.054688 429.691406 C 196.386719 429.398438 196.550781 429.175781 196.550781 429.027344 "/>
<path style=" stroke:none;fill-rule:nonzero;fill:rgb(15.071106%,32.171631%,24.69635%);fill-opacity:1;" d="M 220.910156 437.050781 C 219 437.050781 218.046875 436.113281 218.046875 434.238281 L 218.046875 427.957031 C 218.046875 426.335938 219 425.53125 220.910156 425.53125 L 251.34375 425.53125 L 251.34375 428.371094 L 222.511719 428.371094 C 222.160156 428.625 221.921875 428.921875 221.796875 429.25 L 221.796875 433.332031 L 222.34375 433.882812 L 251.371094 433.882812 L 251.371094 437.050781 Z M 220.910156 437.050781 "/>
<path style=" stroke:none;fill-rule:nonzero;fill:rgb(15.071106%,32.171631%,24.69635%);fill-opacity:1;" d="M 257.347656 425.5 L 257.347656 433.332031 L 257.902344 433.882812 L 286.925781 433.882812 L 286.925781 437.050781 L 256.46875 437.050781 C 254.554688 437.050781 253.597656 436.113281 253.597656 434.238281 L 253.597656 425.5 Z M 257.347656 425.5 "/>
<path style=" stroke:none;fill-rule:nonzero;fill:rgb(15.071106%,32.171631%,24.69635%);fill-opacity:1;" d="M 318.703125 432.859375 L 318.703125 425.5 L 322.453125 425.5 L 322.453125 434.628906 C 322.453125 436.222656 321.515625 437.035156 319.640625 437.050781 L 292.023438 437.050781 C 290.113281 437.050781 289.15625 436.230469 289.15625 434.597656 L 289.15625 425.472656 L 292.90625 425.472656 L 292.90625 433.304688 C 293.035156 433.636719 293.269531 433.929688 293.621094 434.1875 L 318.207031 434.1875 C 318.542969 433.890625 318.703125 433.449219 318.703125 432.859375 "/>
<path style=" stroke:none;fill-rule:nonzero;fill:rgb(15.071106%,32.171631%,24.69635%);fill-opacity:1;" d="M 324.710938 425.5 L 355.253906 425.5 C 357.089844 425.519531 358.007812 426.328125 358.007812 427.925781 L 358.007812 429.636719 C 357.988281 430.296875 357.421875 430.832031 356.304688 431.238281 C 357.347656 431.710938 357.921875 432.28125 358.007812 432.945312 L 358.007812 434.710938 C 358.007812 436.253906 357.089844 437.027344 355.253906 437.027344 L 324.710938 437.027344 Z M 354.265625 429.027344 C 354.265625 428.882812 354.09375 428.664062 353.761719 428.367188 L 328.464844 428.367188 L 328.464844 429.695312 L 353.761719 429.695312 C 354.09375 429.398438 354.265625 429.175781 354.265625 429.027344 M 328.464844 432.859375 L 328.464844 434.183594 L 353.761719 434.183594 C 354.09375 433.890625 354.265625 433.667969 354.265625 433.527344 C 354.265625 433.378906 354.09375 433.160156 353.761719 432.859375 Z M 328.464844 432.859375 "/>
<path style=" stroke:none;fill-rule:nonzero;fill:rgb(15.071106%,32.171631%,24.69635%);fill-opacity:1;" d="M 458.0625 432.574219 L 458.0625 437.0625 L 454.320312 437.0625 L 454.320312 425.515625 L 484.859375 425.515625 C 486.699219 425.535156 487.617188 426.339844 487.617188 427.941406 L 487.617188 430.3125 C 487.617188 431.820312 486.699219 432.574219 484.859375 432.574219 L 483.320312 432.574219 L 487.617188 437.046875 L 483.867188 437.046875 L 479.460938 432.574219 Z M 483.867188 429.042969 C 483.867188 428.894531 483.707031 428.679688 483.367188 428.382812 L 458.0625 428.382812 L 458.0625 429.707031 L 483.367188 429.707031 C 483.707031 429.414062 483.867188 429.191406 483.867188 429.042969 "/>
<path style=" stroke:none;fill-rule:nonzero;fill:rgb(15.071106%,32.171631%,24.69635%);fill-opacity:1;" d="M 520.230469 432.890625 L 520.230469 425.53125 L 523.984375 425.53125 L 523.984375 434.65625 C 523.984375 436.25 523.042969 437.066406 521.171875 437.078125 L 493.554688 437.078125 C 491.640625 437.078125 490.6875 436.261719 490.6875 434.628906 L 490.6875 425.5 L 494.433594 425.5 L 494.433594 433.332031 C 494.566406 433.660156 494.804688 433.953125 495.15625 434.214844 L 519.738281 434.214844 C 520.074219 433.921875 520.230469 433.480469 520.230469 432.890625 "/>
<path style=" stroke:none;fill-rule:nonzero;fill:rgb(15.071106%,32.171631%,24.69635%);fill-opacity:1;" d="M 375.757812 425.53125 L 406.300781 425.53125 C 408.136719 425.546875 409.050781 426.355469 409.050781 427.957031 L 409.050781 429.667969 C 409.035156 430.328125 408.464844 430.855469 407.34375 431.261719 C 408.390625 431.742188 408.964844 432.3125 409.050781 432.96875 L 409.050781 434.738281 C 409.050781 436.28125 408.136719 437.054688 406.300781 437.054688 L 375.757812 437.054688 Z M 405.308594 429.058594 C 405.308594 428.910156 405.136719 428.691406 404.804688 428.398438 L 379.503906 428.398438 L 379.503906 429.71875 L 404.804688 429.71875 C 405.136719 429.425781 405.308594 429.207031 405.308594 429.058594 M 379.503906 432.890625 L 379.503906 434.214844 L 404.804688 434.214844 C 405.136719 433.921875 405.308594 433.699219 405.308594 433.550781 C 405.308594 433.402344 405.136719 433.1875 404.804688 432.890625 Z M 379.503906 432.890625 "/>
<path style=" stroke:none;fill-rule:nonzero;fill:rgb(15.071106%,32.171631%,24.69635%);fill-opacity:1;" d="M 527.050781 425.53125 L 560.351562 425.53125 L 560.351562 428.371094 L 545.460938 428.371094 L 545.460938 437.054688 L 541.71875 437.054688 L 541.71875 428.371094 L 527.050781 428.371094 Z M 527.050781 425.53125 "/>
<path style=" stroke:none;fill-rule:nonzero;fill:rgb(15.071106%,32.171631%,24.69635%);fill-opacity:1;" d="M 450.613281 437.0625 L 446.867188 437.0625 L 446.867188 425.515625 L 450.613281 425.515625 Z M 450.613281 437.0625 "/>
<path style=" stroke:none;fill-rule:nonzero;fill:rgb(15.071106%,32.171631%,24.69635%);fill-opacity:1;" d="M 443.195312 434.214844 L 415.0625 434.214844 L 415.0625 432.894531 L 443.195312 432.894531 L 443.195312 429.71875 L 415.0625 429.71875 L 415.0625 428.398438 L 443.195312 428.398438 L 443.195312 425.527344 L 411.308594 425.527344 L 411.308594 437.054688 L 443.195312 437.054688 Z M 443.195312 434.214844 "/>
</g>
</svg>